<svg xmlns="http://www.w3.org/2000/svg" width="256" height="256" viewBox="0 0 100 100">
    <rect width="100" height="100" rx="20" fill="#5685e4"></rect>
    <path fill="#fff"
          d="M22.55 43.88L22.55 43.88Q22.91 43.70 23.43 43.57Q23.95 43.43 24.57 43.43L24.57 43.43Q26.46 43.43 26.87 44.60L26.87 44.60Q27.68 47.03 28.40 49.19Q29.12 51.35 29.79 53.35Q30.47 55.36 31.10 57.29Q31.73 59.23 32.36 61.30L32.36 61.30L32.54 61.30Q33.17 58.28 33.80 55.38Q34.43 52.48 35.01 49.53Q35.60 46.58 36.14 43.54Q36.68 40.51 37.17 37.13L37.17 37.13Q37.80 36.82 38.70 36.82L38.70 36.82Q39.56 36.82 40.05 37.20Q40.55 37.58 40.55 38.35L40.55 38.35Q40.55 39.20 40.30 40.96Q40.05 42.71 39.63 44.98Q39.20 47.26 38.64 49.89Q38.07 52.52 37.44 55.06Q36.81 57.61 36.18 59.95Q35.55 62.29 34.97 63.95L34.97 63.95Q34.56 64.18 33.93 64.38Q33.30 64.58 32.49 64.58L32.49 64.58Q31.50 64.58 30.83 64.27Q30.15 63.95 29.93 63.41L29.93 63.41Q29.43 62.24 28.80 60.46Q28.17 58.69 27.48 56.55Q26.78 54.41 26.06 52.09Q25.34 49.78 24.66 47.48L24.66 47.48Q23.99 49.73 23.27 52.12Q22.55 54.50 21.85 56.73Q21.15 58.96 20.48 60.85Q19.80 62.74 19.26 64.00L19.26 64.00Q18.90 64.22 18.27 64.40Q17.64 64.58 16.83 64.58L16.83 64.58Q15.80 64.58 15.17 64.24Q14.54 63.91 14.31 63.41L14.31 63.41Q13.91 62.47 13.39 60.71Q12.87 58.96 12.31 56.73Q11.75 54.50 11.14 51.94Q10.53 49.37 9.97 46.83Q9.41 44.29 8.94 41.92Q8.46 39.56 8.15 37.67L8.15 37.67Q8.46 37.36 9.00 37.09Q9.54 36.82 10.17 36.82L10.17 36.82Q11.75 36.82 12.06 38.48L12.06 38.48Q12.65 41.32 13.19 43.95Q13.73 46.58 14.29 49.30Q14.85 52.03 15.48 54.95Q16.11 57.88 16.88 61.30L16.88 61.30L17.06 61.30Q17.69 59.27 18.27 57.45Q18.86 55.63 19.49 53.65Q20.12 51.67 20.86 49.33Q21.60 46.99 22.55 43.88ZM55.17 43.07L55.17 43.07Q57.24 43.07 59.04 43.75Q60.84 44.42 62.17 45.77Q63.50 47.12 64.24 49.19Q64.98 51.26 64.98 54.05L64.98 54.05Q64.98 56.89 64.22 58.96Q63.45 61.03 62.08 62.38Q60.71 63.73 58.77 64.38Q56.84 65.03 54.54 65.03L54.54 65.03Q52.34 65.03 50.56 64.51Q48.78 64.00 47.66 63.32L47.66 63.32Q46.71 62.74 46.35 62.17Q45.99 61.61 45.99 60.67L45.99 60.67L45.99 35.29Q46.22 35.20 46.69 35.08Q47.16 34.97 47.70 34.97L47.70 34.97Q49.59 34.97 49.59 36.59L49.59 36.59L49.59 44.65Q50.58 44.02 51.96 43.54Q53.33 43.07 55.17 43.07ZM54.63 46.04L54.63 46.04Q53.06 46.04 51.78 46.60Q50.49 47.17 49.59 47.93L49.59 47.93L49.59 60.67Q50.27 61.16 51.55 61.61Q52.83 62.06 54.54 62.06L54.54 62.06Q56.07 62.06 57.31 61.59Q58.55 61.12 59.45 60.13Q60.35 59.14 60.84 57.63Q61.34 56.12 61.34 54.05L61.34 54.05Q61.34 51.98 60.84 50.45Q60.35 48.92 59.45 47.95Q58.55 46.99 57.31 46.51Q56.07 46.04 54.63 46.04ZM82.85 64.09L82.85 64.09Q82.62 64.31 81.99 64.49Q81.36 64.67 80.60 64.67L80.60 64.67Q79.74 64.67 79.07 64.42Q78.39 64.18 78.17 63.68L78.17 63.68Q77.58 62.51 76.80 60.67Q76.01 58.82 75.13 56.55Q74.25 54.28 73.33 51.76Q72.41 49.24 71.55 46.76Q70.70 44.29 69.93 41.97Q69.17 39.65 68.63 37.81L68.63 37.81Q68.90 37.45 69.44 37.13Q69.98 36.82 70.65 36.82L70.65 36.82Q71.51 36.82 71.91 37.22Q72.32 37.63 72.59 38.44L72.59 38.44Q74.61 44.33 76.46 49.82Q78.30 55.31 80.51 60.98L80.51 60.98L80.69 60.98Q81.68 58.42 82.74 55.51Q83.79 52.61 84.81 49.53Q85.82 46.45 86.79 43.30Q87.75 40.15 88.52 37.13L88.52 37.13Q89.10 36.82 90.05 36.82L90.05 36.82Q90.86 36.82 91.35 37.22Q91.85 37.63 91.85 38.44L91.85 38.44Q91.85 39.11 91.33 40.98Q90.81 42.85 90.00 45.32Q89.19 47.80 88.18 50.63Q87.17 53.47 86.18 56.08Q85.19 58.69 84.29 60.85Q83.39 63.01 82.85 64.09Z"></path>
</svg>
